<svg id="svg" version="1.1" xmlns="http://www.w3.org/2000/svg" xmlns:xlink="http://www.w3.org/1999/xlink" width="400" height="101.34874759152216" viewBox="0, 0, 400,101.34874759152216"><g id="svgg"><path id="path0" d="M26.397 18.646 C 20.640 20.046,16.364 24.301,14.796 30.193 C 14.026 33.083,14.026 71.734,14.796 74.624 C 16.773 82.050,22.046 86.127,29.672 86.127 C 35.777 86.127,36.826 85.534,45.096 77.413 C 48.538 74.031,51.405 71.315,51.466 71.376 C 51.527 71.437,51.849 72.661,52.182 74.095 C 54.553 84.320,65.082 89.494,73.926 84.781 C 77.466 82.894,117.045 43.044,118.326 40.077 C 123.422 28.270,113.021 15.655,100.735 18.741 C 97.209 19.627,96.328 20.318,86.179 30.156 C 75.137 40.858,74.402 41.230,79.213 33.674 C 82.087 29.160,82.053 29.354,80.529 26.305 C 77.732 20.708,70.701 17.227,64.644 18.440 C 59.847 19.400,58.712 20.230,48.916 29.930 C 38.128 40.613,36.714 41.453,41.179 34.525 C 44.475 29.410,44.411 29.575,43.780 27.742 C 41.462 21.015,33.591 16.896,26.397 18.646 M147.784 18.646 C 143.524 19.682,142.765 20.355,121.371 42.064 C 104.280 59.406,100.762 63.160,99.964 64.902 C 95.107 75.512,101.967 86.127,113.680 86.127 C 120.207 86.127,120.807 85.777,130.444 76.337 C 141.332 65.672,141.749 65.295,142.188 65.733 C 142.437 65.982,141.579 67.630,139.691 70.532 C 136.465 75.489,136.406 75.741,137.800 78.537 C 143.210 89.395,159.481 88.858,165.125 77.636 L 166.281 75.337 166.392 53.179 C 166.502 31.249,166.495 30.994,165.655 28.374 C 163.407 21.362,155.134 16.858,147.784 18.646 M205.973 18.646 C 201.529 19.727,197.966 22.645,195.862 26.927 L 194.798 29.094 194.798 52.216 L 194.798 75.337 195.930 77.649 C 197.290 80.425,200.188 83.392,203.083 84.971 L 205.202 86.127 222.380 86.127 L 239.558 86.127 242.992 84.425 C 247.849 82.018,252.023 77.833,254.384 73.003 L 256.069 69.557 256.069 64.547 C 256.069 58.670,255.503 56.550,253.128 53.545 L 251.602 51.615 249.404 53.340 C 245.340 56.530,237.380 58.980,237.380 57.040 C 237.380 56.857,238.030 56.496,238.825 56.239 C 257.917 50.053,257.563 23.798,238.321 18.877 C 234.690 17.948,209.579 17.769,205.973 18.646 M286.513 18.860 C 259.336 24.128,248.399 56.804,267.191 76.587 C 287.063 97.507,321.336 87.669,327.255 59.345 C 332.128 36.027,310.225 14.263,286.513 18.860 M342.004 18.646 C 326.002 22.537,326.736 45.395,342.967 48.663 L 345.472 49.167 345.674 62.830 L 345.877 76.493 346.938 78.745 C 351.349 88.106,363.538 90.465,371.073 83.416 C 375.691 79.096,376.108 77.276,376.108 61.427 L 376.108 49.028 377.923 48.756 C 394.765 46.230,395.852 22.982,379.328 18.722 C 376.273 17.935,345.190 17.871,342.004 18.646 M295.378 49.808 C 298.548 52.534,295.372 58.088,291.556 56.494 C 288.873 55.372,288.224 51.465,290.432 49.728 C 291.804 48.649,294.074 48.686,295.378 49.808 " stroke="none" fill="#000000" fill-rule="evenodd"></path></g></svg>