<svg id="svg" version="1.1" xmlns="http://www.w3.org/2000/svg" xmlns:xlink="http://www.w3.org/1999/xlink" width="400" height="300" viewBox="0, 0, 400,300"><g id="svgg"><path id="path0" d="M64.831 42.970 C 47.646 48.929,35.457 62.299,31.265 79.787 C 29.165 88.552,29.240 216.009,31.351 224.847 C 39.544 259.146,78.744 275.441,107.093 256.332 C 109.921 254.426,120.967 244.224,131.641 233.660 C 143.055 222.364,151.410 214.872,151.926 215.471 C 152.408 216.031,153.412 219.601,154.157 223.404 C 160.550 256.059,194.358 273.346,224.468 259.356 C 232.099 255.811,361.183 128.743,368.210 117.859 C 388.796 85.978,366.394 42.466,328.464 40.658 C 307.861 39.676,301.291 43.790,264.369 80.796 C 249.161 96.039,236.144 108.511,235.443 108.511 C 232.429 108.511,233.515 105.867,242.041 92.460 C 252.205 76.476,252.276 76.170,247.858 67.329 C 237.092 45.784,209.923 34.903,187.052 42.976 C 177.039 46.510,176.196 47.208,143.289 79.209 C 106.610 114.879,103.532 116.513,119.149 92.021 C 128.526 77.316,128.836 76.039,125.044 67.748 C 115.139 46.095,88.012 34.932,64.831 42.970 " stroke="none" fill="#fff" fill-rule="evenodd"></path></g></svg>